<svg xmlns="http://www.w3.org/2000/svg" viewBox="0 0 445.52 277.66"><defs><style>.cls-1{fill:#fff;}.cls-1,.cls-2{stroke:#5b5b5b;stroke-miterlimit:10;}.cls-2{fill:#70aff9;}</style></defs><title>Recurso 3</title><g id="Capa_2" data-name="Capa 2"><g id="DESIGNED_BY_FREEPIK" data-name="DESIGNED BY FREEPIK"><polygon class="cls-1" points="115.08 92.54 113.05 90.33 114.4 84.36 111.84 82.37 112.13 79.95 107.58 76.25 108.86 72.13 115.82 73.69 117.53 72.27 115.68 68.86 115.04 59.2 118.52 40.01 111.56 36.17 112.99 26.64 82.85 24.94 31.9 3.89 28.56 7.76 30.25 9.46 30.23 11.45 30.25 11.44 37.93 18.97 41.48 20.11 42.76 18.12 46.17 19.97 47.03 22.38 51.86 24.8 54.99 24.94 53.42 32.05 56.69 36.6 56.69 38.73 58.26 40.15 57.83 44.27 62.24 51.52 62.24 53.8 64.94 54.22 65.08 60.48 68.21 62.04 67.78 64.03 73.47 68.72 78.16 75.12 80.15 75.12 81.42 77.67 82.85 78.24 83.7 76.39 87.11 77.53 85.69 83.79 91.23 89.19 94.08 89.47 94.79 93.31 99.05 96.72 101.89 95.16 106.73 101.55 106.72 101.69 115.68 95.44 115.08 92.54"/><polygon class="cls-1" points="157.9 161.54 159.46 160.26 157.04 157.2 160.46 153.44 160.46 152.02 156.19 151.66 155.76 146.4 152.43 142.49 153.13 138.37 151.07 136.95 151.07 135.1 147.24 132.4 145.39 134.46 142.55 134.46 141.76 133.25 142.55 131.9 139.42 126.5 137.57 126.5 135.44 123.3 135.44 116.91 137.27 114.35 136.86 114.35 135.44 111.22 132.31 109.66 132.31 106.53 125.35 104.82 125.35 98.71 120.09 92.74 115.25 92.74 115.08 92.54 115.68 95.44 106.72 101.69 106.58 103.4 102.46 103.26 99.33 108.52 101.33 110.37 102.89 109.94 105.73 112.36 108.01 111.79 106.87 114.35 109.14 115.34 110.85 113.64 110.99 115.77 121.65 122.45 120.8 126.43 124.78 129.41 128.19 129.41 128.47 131.69 125.49 130.56 125.49 132.4 133.88 136.66 155.2 161.54 155.19 161.58 156.53 160.28 157.9 161.54"/><polygon class="cls-1" points="170.12 183.78 174.53 187.76 176.59 186.98 177.87 181.3 180.43 180.09 180 177.89 178.15 177.89 177.23 176.04 179.36 173.34 174.96 168.36 177.09 162.75 175.66 161.54 173.68 162.75 170.83 161.82 170.83 159.34 168.99 159.05 166.64 160.62 165.57 159.41 167.06 158.2 167.06 156.21 163.87 153.44 160.46 153.44 157.04 157.2 159.46 160.26 157.9 161.54 156.53 160.28 155.19 161.58 154.77 168.36 159.32 174.05 161.88 174.9 161.02 181.72 157.04 185.13 157.04 187.41 160.17 187.84 163.8 184.85 170.12 183.78"/><polygon class="cls-1" points="175.31 209.79 179.5 206.53 182.77 208.66 184.97 207.38 187.89 209.44 187.39 214.41 188.25 215.13 191.66 213.28 193.5 214.63 197.12 211.15 199.9 211.15 201.96 209.37 201.32 207.03 199.97 207.38 198.34 203.33 199.76 201.2 198.62 199.99 195.14 199.99 194.5 198 197.12 196.79 200.9 196.79 203.88 194.02 210.28 194.02 211.13 190.54 210.21 189.68 209.78 186.98 217.81 178.53 216.46 176.53 217.38 175.4 217.81 171.91 216.25 170.64 213.47 169.93 207.58 174.19 203.31 174.47 200.11 173.27 198.41 174.47 201.11 176.53 197.98 179.88 195.49 180.23 195.49 182.72 194 183.71 186.61 180.44 184.48 180.44 184.19 177.74 187.68 175.19 187.53 173.05 188.67 171.06 192.58 170.64 194.5 168.57 195.49 165.59 192.51 164.1 191.23 161.54 189.88 162.04 189.88 164.74 187.11 167.72 185.54 164.74 186.11 161.54 185.05 160.97 182.91 165.52 182.91 161.54 185.05 159.34 183.41 157.56 181.35 159.41 181.35 163.6 176.42 164.49 174.96 168.36 179.36 173.34 177.23 176.04 178.15 177.89 180 177.89 180.43 180.09 177.87 181.3 176.59 186.98 174.53 187.76 170.12 183.78 163.8 184.85 160.17 187.84 160.31 191.1 155.34 189.97 152.78 193.38 155.91 195.79 154.77 197.5 164.44 209.58 170.55 211.43 171.69 209.87 175.31 209.79"/><polygon class="cls-1" points="188.25 215.13 187.39 214.41 187.89 209.44 184.97 207.38 182.77 208.66 179.5 206.53 175.31 209.79 171.69 209.87 170.55 211.43 184.19 218.97 186.33 215.91 188.25 215.13"/><polygon class="cls-1" points="212.12 226.43 213.55 224.44 211.91 222.31 214.26 219.89 217.81 222.38 225.7 221.59 226.91 222.66 228.83 222.16 231.88 224.22 232.52 223.8 230.03 220.46 230.18 216.62 232.52 216.62 237.43 211.15 236.79 208.87 239.06 207.95 238.21 203.83 240.13 200.41 238.78 198.99 238.63 196.65 236.43 196.65 234.87 200.77 226.62 200.34 226.2 197.93 224.06 197.93 222.73 199.21 219.8 197.86 220.08 196.01 217.81 194.52 216.03 196.15 211.91 196.15 211.98 194.52 209.96 194.02 203.88 194.02 200.9 196.79 197.12 196.79 194.5 198 195.14 199.99 198.62 199.99 199.76 201.2 198.34 203.33 199.97 207.38 201.32 207.03 201.96 209.37 199.9 211.15 197.12 211.15 193.5 214.63 191.66 213.28 188.25 215.13 186.33 215.91 184.19 218.97 186.33 224.22 205.93 230.3 208.14 226.85 212.12 226.43"/><polygon class="cls-1" points="268.84 250.73 273.17 246.82 272.32 245.76 273.6 243.77 268.77 239.22 269.26 237.23 267.42 233.53 268.91 229.98 262.58 229.63 256.83 225.57 256.83 223.09 254.77 220.81 253.28 222.66 247.09 217.97 246.03 220.14 243.25 219.68 239.7 221.31 239.27 223.23 237.14 223.65 236.5 220.81 234.79 219.89 235.15 217.26 232.46 216.62 230.18 216.62 230.03 220.46 232.52 223.8 231.88 224.22 228.83 222.16 226.91 222.66 225.7 221.59 217.81 222.38 214.26 219.89 211.91 222.31 213.55 224.44 212.12 226.43 208.14 226.85 205.93 230.3 208.36 231.05 209.5 229.34 214.9 230.62 215.47 233.75 243.47 245.12 245.88 247.53 262.51 250.24 264.79 254.5 265.06 254.55 268.77 252.44 268.84 250.73"/><polygon class="cls-1" points="210.92 165.45 209.71 165.45 206.15 163.1 201.46 165.8 200.75 167.94 198.79 168.5 197.7 171.2 199.75 173.52 200.11 173.27 203.31 174.47 207.58 174.19 213.35 170.02 211.56 167.72 210.92 165.45"/><polygon class="cls-1" points="220.65 165.38 221.51 161.11 217.81 160.33 215.75 163.1 212.69 163.1 212.55 160.76 207.22 155.35 207.93 153.44 206.23 150.52 208.71 148.68 210.92 149.17 222.73 139.72 225.98 134.11 229.32 131.69 224.13 130.27 224.13 128.06 222.07 126.93 218.81 129.06 216.81 127.85 217.31 126.93 216.39 125.72 214.75 126.29 212.55 123.09 203.88 122.45 201.46 124.58 203.88 127.14 203.24 133.32 193.65 132.33 183.41 140.07 183.41 145.48 179.43 148.32 176.44 162.2 177.09 162.75 176.42 164.49 181.35 163.6 181.35 159.41 183.41 157.56 185.05 159.34 182.91 161.54 182.91 165.52 185.05 160.97 186.11 161.54 185.54 164.74 187.11 167.72 189.88 164.74 189.88 162.04 191.23 161.54 192.51 164.1 195.49 165.59 194.5 168.57 192.58 170.64 188.67 171.06 187.53 173.05 187.68 175.19 184.19 177.74 184.48 180.44 186.61 180.44 194 183.71 195.49 182.72 195.49 180.23 197.98 179.88 201.11 176.53 198.41 174.47 199.75 173.52 197.7 171.2 198.79 168.5 200.75 167.94 201.46 165.8 206.15 163.1 209.71 165.45 210.92 165.45 211.56 167.72 213.35 170.02 213.47 169.93 216.25 170.64 217.81 171.91 221.51 167.79 220.65 165.38"/><polygon class="cls-1" points="236.93 174.54 234.51 173.83 233.02 176.96 230.96 176.82 225.49 172.77 223.78 173.48 221.29 171.2 219.23 172.77 217.81 171.91 217.38 175.4 216.46 176.53 217.81 178.53 209.78 186.98 210.21 189.68 211.13 190.54 210.28 194.02 209.96 194.02 211.98 194.52 211.91 196.15 216.03 196.15 217.81 194.52 220.08 196.01 219.8 197.86 222.73 199.21 224.06 197.93 226.2 197.93 226.62 200.34 234.87 200.77 236.42 196.68 233.8 192.88 233.8 190.61 232.52 189.33 234.69 185.42 239.63 185.77 240.7 184.92 240.13 181.94 241.62 181.44 242.68 182.65 245.39 180.8 244.3 179.02 244.77 178.4 236.93 175.82 236.93 174.54"/><polygon class="cls-1" points="198.6 128.94 193.01 126.29 193.01 124.39 188.93 120.6 190.45 118.9 189.31 116.62 192.44 113.4 191.3 108.66 192.06 104.49 186.88 100.22 179.36 97.43 173.39 104.4 167.14 101.27 162.02 102.41 151.93 96.01 150.65 97.58 149.09 101.98 146.1 102.55 146.1 105.96 143.82 108.8 143.82 111.5 141.27 114.35 137.27 114.35 135.44 116.91 135.44 123.3 137.57 126.5 139.42 126.5 142.55 131.9 141.76 133.25 142.55 134.46 145.39 134.46 147.24 132.4 151.07 135.1 151.07 136.95 153.13 138.37 152.43 142.49 155.76 146.4 156.19 151.66 160.46 152.02 160.46 153.44 163.87 153.44 167.06 156.21 167.06 158.2 165.57 159.41 166.64 160.62 168.99 159.05 170.83 159.34 170.83 161.82 173.68 162.75 175.66 161.54 176.44 162.2 179.43 148.32 183.41 145.48 183.41 140.07 193.65 132.33 203.24 133.32 203.88 127.14 201.66 124.79 199.07 125.91 198.6 128.94"/><polygon class="cls-1" points="261.45 174.69 264.06 172.41 262.8 169 266.49 166.44 263.3 162.68 260.59 162.68 257.82 164.31 256.97 163.1 252.49 163.1 250.57 159.55 244.77 159.55 240.84 157.2 242.47 154.65 241.83 152.73 240.41 152.73 239.84 150.43 236.29 152.23 234.16 151.09 234.16 141.85 231.88 140.57 231.88 135.95 229.32 131.69 225.98 134.11 222.73 139.72 210.92 149.17 208.71 148.68 206.23 150.52 207.93 153.44 207.22 155.35 212.55 160.76 212.69 163.1 215.75 163.1 217.81 160.33 221.51 161.11 220.65 165.38 221.51 167.79 217.81 171.91 219.23 172.77 221.29 171.2 223.78 173.48 225.49 172.77 230.96 176.82 233.02 176.96 234.51 173.83 236.93 174.54 236.93 175.82 244.77 178.4 245.81 177.03 247.38 178.03 250.5 178.03 253.49 175.04 255.39 179.97 257.82 179.97 259.1 182.08 262.7 181.02 262.7 178.74 263.69 178.4 263.38 175.85 261.45 174.69"/><polygon class="cls-1" points="262.69 162.68 263.3 162.69 263.3 162.68 262.69 162.68"/><polygon class="cls-1" points="267.28 161.47 273.81 164.22 272.89 158.84 275.31 155.57 272.46 137.09 275.73 120.46 278.15 120.6 274.74 132.12 274.31 140.07 275.45 140.07 280 118.89 283.27 109.52 280.71 109.52 278.29 110.65 275.17 108.8 266.64 108.8 265.5 105.68 253.7 103.26 246.74 85.21 244.37 84.19 242.47 85.64 242.97 87.7 244.77 89.4 244.77 96.08 246.52 97.22 246.24 99.49 248.73 100.56 248.87 102.98 252.28 105.18 252.78 107.81 255.19 108.16 256.33 109.3 258.68 108.59 261.94 110.23 261.52 115.13 263.01 117.62 257.25 123.52 254.84 123.52 253.56 124.87 253.2 127.21 249.86 127.21 246.74 130.13 244.77 130.56 244.77 132.19 247.09 132.47 246.66 138.37 248.73 140.07 246.95 142.85 245.53 142.85 241.69 145.83 242.04 148.75 239.84 148.75 239.84 150.43 240.41 152.73 241.83 152.73 242.47 154.65 240.84 157.2 244.77 159.55 250.57 159.55 252.49 163.1 256.97 163.1 257.82 164.31 260.59 162.68 262.69 162.68 263.3 162.68 263.3 162.69 266.49 162.75 267.28 161.47"/><polygon class="cls-1" points="335.22 249.31 336.72 244.27 338.42 243.41 338.42 238.86 321.5 238.86 315.53 232.4 309.49 235.56 306.01 231.4 308.28 227.78 307.43 225.15 301.39 225.15 297.48 219.75 294.88 219.75 292.29 224.72 290.8 224.58 289.24 226.6 285.33 225.93 282.34 228.49 278.93 226.14 279.64 224.29 279.07 223.23 276.44 225.79 277.51 228.27 276.02 229.63 272.39 227.42 268.91 229.99 267.42 233.53 269.26 237.23 268.77 239.22 273.6 243.77 272.32 245.76 273.17 246.82 268.84 250.73 268.77 252.44 265.06 254.55 272.75 255.92 275.59 258.76 300.04 263.6 315.11 257.77 317.52 254.78 323.35 254.07 323.63 252.51 319.94 252.37 323.78 250.52 326.9 251.8 326.19 254.22 330.74 254.5 331.59 251.94 336.72 253.54 336.72 251.16 335.22 249.31"/><polygon class="cls-1" points="379.09 236.27 377.66 234.46 377.37 234.46 379.09 236.27"/><polygon class="cls-1" points="372.96 231.76 372.96 228.77 371.04 228.42 371.04 226.57 367.49 226.21 366.42 228.2 362.44 229.31 361.52 231.83 360.16 231.62 356.61 234.46 352.42 232.18 352.42 226.64 351.85 226.21 350.64 227.28 348.51 225.36 345.03 228.56 345.52 230.48 343.35 232.78 346.09 234.17 345.45 235.74 343.32 234.88 342.96 235.81 343.96 236.52 343.46 237.73 340.76 237.51 339.06 238.86 338.42 238.86 338.42 243.41 336.72 244.27 335.22 249.31 336.72 251.16 336.72 253.54 340.26 254.64 340.83 256.92 359.31 269.14 357.61 269 356.61 270.42 367.27 276.85 368.83 267.86 366.28 265.87 373.38 253.22 393.71 250.94 393.43 245.83 383.05 240.43 379.09 236.27 379.1 236.27 379.09 236.27 377.37 234.46 377.66 234.46 375.59 231.83 372.96 231.76"/><polygon class="cls-1" points="378.71 224.15 378.14 222.87 373.95 222.38 373.46 224.33 367.56 224.33 364.64 222.38 364.29 218.11 360.5 217.76 358.59 215.01 351.63 218.97 345.31 219.03 341.12 221.24 336.57 221.66 332.62 223.07 335.15 225.15 334.87 227.85 338.99 231.54 340.19 231.19 343.35 232.78 345.52 230.48 345.03 228.56 348.51 225.36 350.64 227.28 351.85 226.21 352.42 226.64 352.42 232.18 356.61 234.46 360.16 231.62 361.52 231.83 362.44 229.31 366.42 228.2 367.49 226.21 371.04 226.57 371.04 228.42 372.96 228.77 372.96 231.76 375.59 231.83 377.66 234.46 383.19 234.46 384.19 226.64 384.79 226.58 382.76 224.15 378.71 224.15"/><polygon class="cls-1" points="436.78 194.37 431.81 196.08 430.53 194.37 435.5 191.67 434.08 185.85 444.96 173.48 442.32 165.66 434.22 163.25 432.94 165.09 435.07 166.09 434.36 167.94 430.79 167.73 431.88 175.04 428.75 181.58 405.37 197.5 406.81 224.42 411.76 223.94 412.33 221.52 416.31 223.23 421.14 213.85 423.85 214.27 426.55 208.16 428.82 208.3 427.4 212.71 429.96 213.14 429.67 215.98 432.23 216.69 435.5 199.35 434.22 198.78 432.09 201.05 431.95 198.92 437.06 196.22 436.78 194.37"/><polygon class="cls-1" points="392.22 185.56 388.88 184.49 388.63 178.24 386.18 183.15 388.74 193.38 385.18 195.94 383.9 202.62 373.38 210.29 374.38 211.43 376.8 209.58 377.93 211 375.51 212.85 377.93 214.98 373.53 217.54 371.54 216.55 368.27 218.4 365.14 215.69 366.85 214.7 368.98 215.98 368.98 215.27 366.7 212.99 359.88 214.27 358.59 215.01 360.5 217.76 364.29 218.11 364.64 222.38 367.56 224.33 373.46 224.33 373.95 222.38 378.14 222.87 378.71 224.15 382.76 224.15 384.79 226.58 406.81 224.42 405.38 197.82 394.85 184.85 392.22 185.56"/><polygon class="cls-1" points="428.75 181.58 431.88 175.04 430.79 167.73 417.31 166.94 413.04 170.21 400.39 172.63 388.74 178.03 388.63 178.24 388.88 184.49 392.22 185.56 394.85 184.85 405.38 197.82 405.37 197.5 428.75 181.58"/><polygon class="cls-1" points="38.16 74.84 37.36 77.25 39.07 78.53 37.65 80.09 36.94 78.24 33.38 77.11 33.52 74.69 30.75 73.8 29.38 75.22 21.95 73.28 21.44 74.41 25.42 76.39 25 77.96 28.41 79.81 28.26 82.93 34.52 85.07 34.52 86.63 38.21 87.91 38.78 90.89 41.63 91.75 42.48 90.33 45.18 91.32 46.74 87.77 48.45 88.34 47.17 91.04 48.45 92.89 48.31 95.16 61.81 105.25 61.95 114.06 60.53 115.48 60.53 121.74 63.23 122.31 65.08 124.72 67.07 124.44 67.5 127.42 81 140.07 83.7 140.65 88.39 145.19 88.39 151.45 91.94 153.01 94.08 150.31 99.33 148.18 98.62 142.21 95.92 141.21 94.08 135.24 91.23 135.24 90.95 133.82 87.68 129.56 85.26 132.12 80.71 129.13 81.85 126.57 80.29 125.72 82.28 122.31 78.44 118.19 76.45 110.79 73.04 107.52 73.18 97.86 71.33 94.59 68.35 91.18 67.21 93.17 69.48 94.88 68.77 96.58 65.79 93.59 64.8 90.75 64.51 89.9 65.93 88.62 65.93 87.2 62.38 86.06 62.24 84.21 60.96 83.5 60.81 81.23 54.84 76.11 55.18 73.26 33.87 72.87 38.16 74.84"/><polygon class="cls-1" points="28.56 7.76 31.9 3.89 31.89 3.88 34.94 0.5 0.5 0.5 0.5 3.62 2.68 4.61 1.97 7.74 5.95 10.44 4.67 16.27 8.51 19.82 10.21 25.65 12.2 27.93 12.06 33.33 14.76 34.04 14.9 42.14 21.73 49.39 24.57 49.39 32.67 57.35 32.53 60.19 36.79 63.46 34.8 67.87 36.94 69 33.81 72.84 33.87 72.87 55.18 73.26 55.41 71.28 53.99 69.86 54.99 67.16 50.15 61.04 48.73 60.48 48.59 59.2 45.32 59.05 46.03 56.35 37.5 45.69 34.52 44.84 30.96 40.58 31.53 26.65 28.83 26.08 30.68 14.56 28.12 12.29 30.23 11.45 30.25 9.46 28.56 7.76"/><polygon class="cls-1" points="118.52 40.01 115.04 59.2 115.68 68.86 117.53 72.27 115.82 73.69 108.86 72.13 107.58 76.25 112.13 79.95 111.84 82.37 114.4 84.36 113.05 90.33 115.25 92.74 120.09 92.74 125.35 98.71 125.35 104.82 132.31 106.53 132.31 109.66 135.44 111.22 136.86 114.35 141.27 114.35 143.82 111.5 143.82 108.8 146.1 105.96 146.1 102.55 149.09 101.98 150.65 97.58 151.93 96.01 162.02 102.41 167.14 101.27 173.39 104.4 179.36 97.43 187.04 100.28 182.91 81.23 193.43 64.88 186.89 60.48 184.05 60.48 179.22 55.93 176.8 55.93 170.41 40.86 161.74 34.61 160.46 32.05 152.21 26.22 148.8 20.53 123.22 20.53 123.22 27.21 112.99 26.64 111.56 36.17 118.52 40.01"/><polygon class="cls-1" points="276.02 229.63 277.51 228.27 276.44 225.79 279.07 223.23 279.64 224.29 278.93 226.14 282.34 228.49 285.33 225.93 289.24 226.6 290.8 224.58 292.29 224.72 295.13 219.25 294.57 218.61 291.72 220.53 287.67 220.88 286.75 218.61 283.98 218.61 283.27 216.26 284.69 215.27 283.9 211.43 285.83 208.8 282.63 207.24 281.56 204.32 284.12 201.55 283.27 199.99 285.54 196.65 281.35 194.66 279.29 196.72 275.95 195.01 276.44 192.03 278.08 192.03 278.72 189.97 276.09 189.11 276.37 186.48 273.17 187.12 272.32 191.53 268.41 194.66 268.41 195.94 270.69 195.94 270.69 197.78 268.77 201.2 268.77 203.97 272.04 203.75 278.36 208.66 277.8 210.15 270.12 212 264.15 208.23 262.16 208.23 262.8 215.34 261.24 219.18 262.3 219.82 262.16 222.16 259.17 221.59 256.83 223.31 256.83 225.57 262.58 229.63 268.91 229.98 268.91 229.99 272.39 227.42 276.02 229.63"/><polygon class="cls-1" points="259.1 212.85 256.12 213.35 253.91 212 250.25 214.84 251.07 216.62 249.44 217.4 249.44 219.75 253.28 222.66 254.77 220.81 256.83 223.09 256.83 223.31 259.17 221.59 262.16 222.16 262.3 219.82 261.24 219.18 262.8 215.34 262.68 214.06 260.45 215.2 259.1 212.85"/><polygon class="cls-1" points="262.7 205.18 262.16 208.23 264.15 208.23 270.12 212 277.8 210.15 278.36 208.66 272.04 203.75 268.83 203.96 268.63 205.18 262.7 205.18"/><polygon class="cls-2" points="256.07 206.1 253.49 208.23 253.91 209.94 253.94 212.02 256.12 213.35 258.05 213.03 257.47 209.05 256.07 206.1"/><polygon class="cls-1" points="259.74 201.2 258.19 198.64 255.84 198.64 252.07 202.33 249.44 200.56 249.93 197.57 246.59 196.51 245.67 197.57 243.18 194.8 242.26 195.72 242.26 197.22 240.05 200.34 240.13 200.41 238.21 203.83 239.06 207.95 236.79 208.87 237.43 211.15 232.52 216.62 232.46 216.62 235.15 217.26 234.79 219.89 236.5 220.81 237.14 223.65 239.27 223.23 239.7 221.31 243.25 219.68 246.03 220.14 247.09 217.97 249.44 219.75 249.44 217.4 251.07 216.62 250.25 214.84 253.91 212 253.94 212.02 253.91 209.94 253.49 208.23 256.07 206.1 257.47 209.05 258.05 213.03 259.1 212.85 260.45 215.2 262.68 214.06 262.16 208.23 262.7 205.18 267.28 205.18 263.51 201.2 259.74 201.2"/><polygon class="cls-2" points="247.59 189.68 248.09 187.05 250.57 185.35 251.64 182.5 256.07 181.72 253.49 175.04 250.5 178.03 247.38 178.03 245.81 177.03 244.3 179.02 245.39 180.8 242.68 182.65 241.62 181.44 240.13 181.94 240.7 184.92 239.63 185.77 234.69 185.42 232.52 189.33 233.8 190.61 233.8 192.88 236.42 196.68 236.43 196.65 238.63 196.65 238.78 198.99 240.05 200.34 242.26 197.22 242.26 195.72 243.18 194.8 243.23 194.85 245.6 190.54 247.59 189.68"/><polygon class="cls-2" points="242.04 148.75 241.69 145.83 245.53 142.85 246.95 142.85 248.73 140.07 246.66 138.37 247.09 132.47 244.77 132.19 244.77 130.56 246.74 130.13 249.86 127.21 253.2 127.21 253.56 124.87 254.84 123.52 257.25 123.52 263.01 117.62 261.52 115.13 261.94 110.23 258.68 108.59 256.33 109.3 255.19 108.16 252.78 107.81 252.28 105.18 248.87 102.98 248.73 100.56 246.24 99.49 246.52 97.22 244.77 96.08 244.77 89.4 242.97 87.7 242.47 85.64 244.37 84.19 242.91 83.57 239.84 84.92 238.28 83.43 236.65 83.43 233.8 89.54 230.67 89.97 228.04 92.53 229.32 94.52 231.03 93.31 232.95 95.37 230.75 99.92 228.9 98.92 222.73 104.11 227.69 108.59 227.69 113.5 231.88 116.12 231.67 117.97 234.01 119.25 237.57 119.25 237.57 120.53 234.09 122.45 232.02 121.03 228.87 123.3 229.68 125.44 228.87 131.56 229.32 131.69 231.88 135.95 231.88 140.57 234.16 141.85 234.16 151.09 236.29 152.23 239.84 150.43 239.84 148.75 242.04 148.75"/><polygon class="cls-1" points="228.87 123.3 232.02 121.03 234.09 122.45 237.57 120.53 237.57 119.25 234.01 119.25 231.67 117.97 231.88 116.12 227.69 113.5 227.69 108.59 222.73 104.11 228.9 98.92 230.75 99.92 232.95 95.37 231.03 93.31 229.32 94.52 228.04 92.53 230.67 89.97 233.8 89.54 236.65 83.43 238.28 83.43 239.84 84.92 242.91 83.57 242.76 83.5 238.63 76.39 235.79 75.69 231.38 62.18 220.44 52.09 206.08 51.24 197.98 59.05 198.69 61.19 193.43 64.88 182.91 81.23 187.04 100.28 186.88 100.22 192.06 104.49 191.3 108.66 192.44 113.4 189.31 116.62 190.45 118.9 188.93 120.6 193.01 124.39 193.01 126.29 198.6 128.94 199.07 125.91 201.66 124.79 201.46 124.58 203.88 122.45 212.55 123.09 214.75 126.29 216.39 125.72 217.31 126.93 216.81 127.85 218.81 129.06 222.07 126.93 224.13 128.06 224.13 130.27 228.87 131.56 229.68 125.44 228.87 123.3"/><polygon class="cls-1" points="301.39 225.15 307.43 225.15 308.28 227.78 306.01 231.4 309.49 235.56 315.53 232.4 321.5 238.86 339.06 238.86 340.76 237.51 343.46 237.73 343.96 236.52 342.96 235.81 343.32 234.88 345.45 235.74 346.09 234.17 340.19 231.19 338.99 231.54 334.87 227.85 335.15 225.15 332.62 223.07 328.18 224.65 321.93 217.83 308.42 215.69 302.88 220.95 301.89 219.53 305.01 216.26 302.88 215.27 305.01 212.28 299.47 208.44 297.05 200.06 288.95 191.1 286.39 190.25 281.85 180.02 275.45 173.76 273.81 164.22 267.28 161.47 266.49 162.75 263.3 162.69 266.49 166.44 262.8 169 264.06 172.41 261.45 174.69 263.38 175.85 263.69 178.4 264.57 178.1 264.57 180.87 266 181.37 267.28 180.52 269.55 183.36 268.13 186.84 266.35 186.34 265.07 187.84 265.46 188.97 264.22 189.54 264.15 193.38 265.46 193.38 269.55 189.33 272.73 189.43 273.17 187.12 276.37 186.48 276.09 189.11 278.72 189.97 278.08 192.03 276.44 192.03 275.95 195.01 279.29 196.72 281.35 194.66 285.54 196.65 283.27 199.99 284.12 201.55 281.56 204.32 282.63 207.24 285.83 208.8 283.9 211.43 284.69 215.27 283.27 216.26 283.98 218.61 286.75 218.61 287.67 220.88 291.72 220.53 294.57 218.61 295.13 219.25 294.88 219.75 297.48 219.75 301.39 225.15"/><polygon class="cls-1" points="265.46 193.38 264.15 193.38 264.22 189.54 265.46 188.97 265.07 187.84 266.35 186.34 268.13 186.84 269.55 183.36 267.28 180.52 266 181.37 264.57 180.87 264.57 178.1 262.7 178.74 262.7 181.02 259.1 182.08 257.82 179.97 255.39 179.97 256.07 181.72 251.64 182.5 250.57 185.35 248.09 187.05 247.59 189.68 245.6 190.54 243.23 194.85 245.67 197.57 246.59 196.51 249.93 197.57 249.44 200.56 252.07 202.33 255.84 198.64 258.19 198.64 259.74 201.2 263.51 201.2 267.28 205.18 268.63 205.18 268.83 203.96 268.77 203.97 268.77 201.2 270.69 197.78 270.69 195.94 268.41 195.94 268.41 194.66 272.32 191.53 272.73 189.43 269.55 189.33 265.46 193.38"/><polygon class="cls-1" points="441.25 184.24 439.69 182.38 441.68 179.91 444.52 179.34 444.96 180.83 441.25 184.24"/><polygon class="cls-1" points="76.87 103.5 74.24 106.78 75.03 108.48 75.95 108.13 75.88 106.78 77.58 105 76.87 103.5"/><polygon class="cls-1" points="81.35 119 82.42 118.64 84.27 121.06 83.77 122.34 81.35 119"/><polygon class="cls-1" points="85.54 127.67 86.4 127.06 87.18 129.09 85.54 130.3 85.54 127.67"/><polygon class="cls-1" points="92.22 131.72 92.86 130.87 95.28 133.28 94.07 134.35 92.22 131.72"/><polygon class="cls-1" points="85.54 127.06 86.36 126.32 85.54 125.18 84.55 126.12 85.54 127.06"/><polygon class="cls-1" points="66.28 128.24 63.44 125.82 62.02 127.06 65.5 129.66 66.28 128.24"/><polygon class="cls-1" points="34.52 73.87 37.29 75.29 35.9 76.85 34.09 75.93 34.52 73.87"/><polygon class="cls-1" points="22.01 71.31 24.07 71.31 24.07 67.19 23.04 67.19 21.44 69.25 22.01 71.31"/></g></g></svg>